<svg width="129" height="38" viewBox="0 0 129 38" fill="none" xmlns="http://www.w3.org/2000/svg">
    <path d="M8.03125 29.0312C9.17188 29.4844 10.0703 29.8359 10.7266 30.0859C11.3828 30.3359 12.0703 30.5547 12.7891 30.7422C12.9922 30.2266 13.0938 29.5234 13.0938 28.6328C13.0938 27.4297 13.0078 25.2266 12.8359 22.0234C12.5859 17.7422 12.4609 14.4609 12.4609 12.1797C12.4609 10.6016 12.5078 9.24219 12.6016 8.10156L8.73438 7.86719L8.66406 15.25C7.49219 15.6406 6.17188 15.8359 4.70312 15.8359C4.32812 15.8359 4.04688 15.8281 3.85938 15.8125C3.34375 15.4062 2.80469 14.7656 2.24219 13.8906C1.69531 13.0156 1.24219 12.0312 0.882812 10.9375C0.523438 9.84375 0.34375 8.78906 0.34375 7.77344C0.34375 6.02344 0.632812 4.6875 1.21094 3.76562C1.78906 2.84375 2.60156 2.21094 3.64844 1.86719C4.69531 1.50781 6.09375 1.27344 7.84375 1.16406C10.5625 1.00781 13.7578 0.890625 17.4297 0.8125C21.1172 0.71875 24.6406 0.671875 28 0.671875C28.4531 1.25 28.7891 1.89844 29.0078 2.61719C29.2422 3.33594 29.3594 4.05469 29.3594 4.77344C29.3594 6.11719 29.0156 7.24219 28.3281 8.14844C27.6406 9.05469 26.625 9.50781 25.2812 9.50781C24.4062 9.50781 23.3516 9.35156 22.1172 9.03906C21.8359 16.3828 21.4297 23.1641 20.8984 29.3828C20.7891 30.5859 20.6094 31.6484 20.3594 32.5703C20.1094 33.4922 19.7266 34.2969 19.2109 34.9844C18.5703 35.8281 17.6875 36.4531 16.5625 36.8594C15.4375 37.2656 14.1953 37.4688 12.8359 37.4688C11.5547 37.4688 10.2891 37.2422 9.03906 36.7891C7.80469 36.3359 6.875 35.5 6.25 34.2812C6.26562 33.2656 6.39062 32.3672 6.625 31.5859C6.85938 30.7891 7.32812 29.9375 8.03125 29.0312ZM29.0078 23.3828C29.0078 20.6797 29.4609 18.2656 30.3672 16.1406C31.2734 14.0156 32.6719 12.3359 34.5625 11.1016C36.4688 9.85156 38.8438 9.22656 41.6875 9.22656C43.1719 9.22656 44.6562 9.40625 46.1406 9.76562C47.625 10.1094 48.8828 10.6875 49.9141 11.5C50.8672 12.2656 51.5547 13.2812 51.9766 14.5469C52.4141 15.7969 52.6328 17.1875 52.6328 18.7188C52.6328 19.7344 52.5469 20.7734 52.375 21.8359C52.1875 22.1484 51.8203 22.5625 51.2734 23.0781C50.7266 23.5781 50.0859 24.0703 49.3516 24.5547C48.6172 25.0391 47.9062 25.4141 47.2188 25.6797C46.5625 25.7266 45.8828 25.75 45.1797 25.75C43.9453 25.75 42.6953 25.6953 41.4297 25.5859C40.1641 25.4766 39.0547 25.3516 38.1016 25.2109C38.2266 26.5391 38.6328 27.6953 39.3203 28.6797C40.0078 29.6641 41.1016 30.1562 42.6016 30.1562C42.7422 30.1562 42.9688 30.1406 43.2812 30.1094C44.2344 30.0156 45.3438 29.7656 46.6094 29.3594C47.8906 28.9375 49.1641 28.4531 50.4297 27.9062C51.0234 28.5 51.4609 29.0938 51.7422 29.6875C52.0234 30.2812 52.2188 31.1328 52.3281 32.2422C51.8438 32.8047 51.0547 33.4922 49.9609 34.3047C48.8828 35.1172 47.5625 35.8516 46 36.5078C44.4375 37.1484 42.8047 37.4688 41.1016 37.4688C38.5391 37.4688 36.3438 36.8516 34.5156 35.6172C32.7031 34.3672 31.3281 32.6797 30.3906 30.5547C29.4688 28.4141 29.0078 26.0234 29.0078 23.3828ZM44.1016 17.9922C43.8828 17.7578 43.5156 17.5781 43 17.4531C42.4844 17.3125 41.9453 17.2422 41.3828 17.2422C40.9297 17.2422 40.4688 17.2812 40 17.3594C39.5469 17.4375 39.2734 17.5234 39.1797 17.6172C38.6484 18.6641 38.3125 19.8516 38.1719 21.1797L44.4297 20.5703L44.1016 17.9922ZM55.5859 23.3828C55.5859 20.6797 56.0391 18.2656 56.9453 16.1406C57.8516 14.0156 59.25 12.3359 61.1406 11.1016C63.0469 9.85156 65.4219 9.22656 68.2656 9.22656C69.2344 9.22656 70.3438 9.28906 71.5938 9.41406C72.8594 9.52344 74.0703 9.69531 75.2266 9.92969L75.6953 10.2578C76.3984 10.7422 76.9141 11.1328 77.2422 11.4297C77.5859 11.7109 77.9453 12.1094 78.3203 12.625C78.3203 13.4688 78.2031 14.6328 77.9688 16.1172C77.75 17.5859 77.4688 18.9531 77.125 20.2188C76.7812 21.4844 76.4531 22.2969 76.1406 22.6562C75.625 22.9219 74.7891 23.0547 73.6328 23.0547C73.0703 23.0547 72.5391 23.0156 72.0391 22.9375C71.5547 22.8438 71.1875 22.7266 70.9375 22.5859L70.4453 18.25C70.2109 17.9844 69.6719 17.7734 68.8281 17.6172C68 17.4453 67.2344 17.3594 66.5312 17.3594C66.3125 17.3594 66.1094 17.375 65.9219 17.4062C65.5625 18.1406 65.2891 19.0781 65.1016 20.2188C64.9141 21.3594 64.8203 22.5234 64.8203 23.7109C64.8203 25.4297 65.1016 26.8906 65.6641 28.0938C66.2266 29.2812 67.375 29.875 69.1094 29.875C69.9688 29.875 70.8125 29.7344 71.6406 29.4531C72.4844 29.1719 73.5469 28.7422 74.8281 28.1641C75.3594 27.9141 75.7578 27.7344 76.0234 27.625C76.6484 28.25 77.1406 28.9062 77.5 29.5938C77.8594 30.2812 78.0938 31.1641 78.2031 32.2422C77.2031 33.4141 75.7969 34.5781 73.9844 35.7344C72.1875 36.8906 70.0859 37.4688 67.6797 37.4688C65.1172 37.4688 62.9219 36.8516 61.0938 35.6172C59.2812 34.3672 57.9062 32.6797 56.9688 30.5547C56.0469 28.4141 55.5859 26.0234 55.5859 23.3828Z" fill="#1C01C9"/>
    <path d="M84.1562 35.8516C84.1562 35.1797 84.125 33.1875 84.0625 29.875C83.9375 25.0312 83.875 20.8438 83.875 17.3125C83.875 13.8594 83.9375 10.9375 84.0625 8.54688L80.2422 8.05469C80.0078 7.10156 79.8516 6.3125 79.7734 5.6875C79.6953 5.04688 79.6641 4.3125 79.6797 3.48438C79.9922 3.09375 80.5703 2.67969 81.4141 2.24219C82.2734 1.78906 83.2422 1.41406 84.3203 1.11719C85.4141 0.820312 86.4688 0.671875 87.4844 0.671875C89.2969 0.671875 90.7734 1.07812 91.9141 1.89062C93.0703 2.70313 93.6797 3.875 93.7422 5.40625C93.7734 6.3125 93.7891 7.08594 93.7891 7.72656C93.7891 10.6797 93.6641 14.2422 93.4141 18.4141C93.1641 22.5703 92.8281 27.4844 92.4062 33.1562L92.1719 36.4609C90.9375 37.1484 89.5312 37.4922 87.9531 37.4922C86.6094 37.4922 85.3438 37.25 84.1562 36.7656V35.8516ZM97.9141 29.4766C98.8672 29.7891 99.7344 30.0391 100.516 30.2266C102.031 24.1328 103.758 16.9375 105.695 8.64062L100.047 8.03125C99.6875 7.04688 99.5078 5.92969 99.5078 4.67969C99.5078 3.72656 99.6172 2.79688 99.8359 1.89062C102.102 1.45312 104.711 1.14062 107.664 0.953125C110.633 0.75 113.18 0.648438 115.305 0.648438C116.836 0.648438 117.984 0.65625 118.75 0.671875L120.227 1.51562C122.852 8.71875 125.516 18.4609 128.219 30.7422C128.25 30.8672 128.305 31.1172 128.383 31.4922C128.477 31.8672 128.547 32.2266 128.594 32.5703C128.641 32.8984 128.664 33.2109 128.664 33.5078C128.664 34.8203 128.195 35.8828 127.258 36.6953C125.945 37.2109 124.359 37.4688 122.5 37.4688C121.625 37.4688 120.742 37.375 119.852 37.1875C118.961 37 118.359 36.7109 118.047 36.3203L118.328 30.2734L117.742 27.1328C116.727 27.1953 115.531 27.2266 114.156 27.2266C112.688 27.2266 111.312 27.1797 110.031 27.0859L109.75 28.3516C109.141 31.0703 108.641 33 108.25 34.1406C107.875 35.2812 107.312 36.125 106.562 36.6719C105.828 37.2188 104.727 37.4922 103.258 37.4922C102.305 37.4922 101.344 37.3672 100.375 37.1172C99.4062 36.8828 98.5312 36.5625 97.75 36.1562C96.9688 35.75 96.3828 35.3125 95.9922 34.8438C95.9922 33.7188 96.1641 32.6484 96.5078 31.6328C96.8516 30.6172 97.3203 29.8984 97.9141 29.4766ZM114.344 8.85156H113.266L111.578 20.4062H116.828L114.344 8.85156Z" fill="#E06AFF"/>
    </svg>
    