<svg width="168" height="51" viewBox="0 0 168 51" fill="none" xmlns="http://www.w3.org/2000/svg">
    <path d="M0.0454545 50V3.45454H18.6818C22.1061 3.45454 24.9621 3.96212 27.25 4.97727C29.5379 5.99242 31.2576 7.40151 32.4091 9.20454C33.5606 10.9924 34.1364 13.053 34.1364 15.3864C34.1364 17.2045 33.7727 18.803 33.0455 20.1818C32.3182 21.5455 31.3182 22.6667 30.0455 23.5455C28.7879 24.4091 27.3485 25.0227 25.7273 25.3864V25.8409C27.5 25.9167 29.1591 26.4167 30.7045 27.3409C32.2652 28.2652 33.5303 29.5606 34.5 31.2273C35.4697 32.8788 35.9545 34.8485 35.9545 37.1364C35.9545 39.6061 35.3409 41.8106 34.1136 43.75C32.9015 45.6742 31.1061 47.197 28.7273 48.3182C26.3485 49.4394 23.4167 50 19.9318 50H0.0454545ZM9.88636 41.9545H17.9091C20.6515 41.9545 22.6515 41.4318 23.9091 40.3864C25.1667 39.3258 25.7955 37.9167 25.7955 36.1591C25.7955 34.8712 25.4848 33.7348 24.8636 32.75C24.2424 31.7652 23.3561 30.9924 22.2045 30.4318C21.0682 29.8712 19.7121 29.5909 18.1364 29.5909H9.88636V41.9545ZM9.88636 22.9318H17.1818C18.5303 22.9318 19.7273 22.697 20.7727 22.2273C21.8333 21.7424 22.6667 21.0606 23.2727 20.1818C23.8939 19.303 24.2045 18.25 24.2045 17.0227C24.2045 15.3409 23.6061 13.9848 22.4091 12.9545C21.2273 11.9242 19.5455 11.4091 17.3636 11.4091H9.88636V22.9318Z" fill="#0BD800"/>
    <path d="M42.1761 50V15.0909H51.5625V21.1818H51.9261C52.5625 19.0152 53.6307 17.3788 55.1307 16.2727C56.6307 15.1515 58.358 14.5909 60.3125 14.5909C60.7973 14.5909 61.3201 14.6212 61.8807 14.6818C62.4413 14.7424 62.9337 14.8258 63.358 14.9318V23.5227C62.9034 23.3864 62.2746 23.2652 61.4716 23.1591C60.6686 23.053 59.9337 23 59.267 23C57.8428 23 56.5701 23.3106 55.4489 23.9318C54.3428 24.5379 53.464 25.3864 52.8125 26.4773C52.1761 27.5682 51.858 28.8258 51.858 30.25V50H42.1761ZM77.3182 50.6591C75.0909 50.6591 73.1061 50.2727 71.3636 49.5C69.6212 48.7121 68.2424 47.553 67.2273 46.0227C66.2273 44.4773 65.7273 42.553 65.7273 40.25C65.7273 38.3106 66.0833 36.6818 66.7955 35.3636C67.5076 34.0455 68.4773 32.9848 69.7045 32.1818C70.9318 31.3788 72.3258 30.7727 73.8864 30.3636C75.4621 29.9545 77.1136 29.6667 78.8409 29.5C80.8712 29.2879 82.5076 29.0909 83.75 28.9091C84.9924 28.7121 85.8939 28.4242 86.4545 28.0455C87.0152 27.6667 87.2955 27.1061 87.2955 26.3636V26.2273C87.2955 24.7879 86.8409 23.6742 85.9318 22.8864C85.0379 22.0985 83.7652 21.7045 82.1136 21.7045C80.3712 21.7045 78.9848 22.0909 77.9545 22.8636C76.9242 23.6212 76.2424 24.5758 75.9091 25.7273L66.9545 25C67.4091 22.8788 68.303 21.0455 69.6364 19.5C70.9697 17.9394 72.6894 16.7424 74.7955 15.9091C76.9167 15.0606 79.3712 14.6364 82.1591 14.6364C84.0985 14.6364 85.9545 14.8636 87.7273 15.3182C89.5152 15.7727 91.0985 16.4773 92.4773 17.4318C93.8712 18.3864 94.9697 19.6136 95.7727 21.1136C96.5758 22.5985 96.9773 24.3788 96.9773 26.4545V50H87.7955V45.1591H87.5227C86.9621 46.25 86.2121 47.2121 85.2727 48.0455C84.3333 48.8636 83.2045 49.5076 81.8864 49.9773C80.5682 50.4318 79.0455 50.6591 77.3182 50.6591ZM80.0909 43.9773C81.5152 43.9773 82.7727 43.697 83.8636 43.1364C84.9545 42.5606 85.8106 41.7879 86.4318 40.8182C87.053 39.8485 87.3636 38.75 87.3636 37.5227V33.8182C87.0606 34.0152 86.6439 34.197 86.1136 34.3636C85.5985 34.5152 85.0152 34.6591 84.3636 34.7955C83.7121 34.9167 83.0606 35.0303 82.4091 35.1364C81.7576 35.2273 81.1667 35.3106 80.6364 35.3864C79.5 35.553 78.5076 35.8182 77.6591 36.1818C76.8106 36.5455 76.1515 37.0379 75.6818 37.6591C75.2121 38.2652 74.9773 39.0227 74.9773 39.9318C74.9773 41.25 75.4545 42.2576 76.4091 42.9545C77.3788 43.6364 78.6061 43.9773 80.0909 43.9773ZM133.534 25.0455L124.67 25.5909C124.519 24.8333 124.193 24.1515 123.693 23.5455C123.193 22.9242 122.534 22.4318 121.716 22.0682C120.913 21.6894 119.951 21.5 118.83 21.5C117.33 21.5 116.064 21.8182 115.034 22.4545C114.004 23.0758 113.489 23.9091 113.489 24.9545C113.489 25.7879 113.822 26.4924 114.489 27.0682C115.155 27.6439 116.299 28.1061 117.92 28.4545L124.239 29.7273C127.633 30.4242 130.163 31.5455 131.83 33.0909C133.496 34.6364 134.33 36.6667 134.33 39.1818C134.33 41.4697 133.655 43.4773 132.307 45.2045C130.973 46.9318 129.14 48.2803 126.807 49.25C124.489 50.2045 121.814 50.6818 118.784 50.6818C114.163 50.6818 110.481 49.7197 107.739 47.7955C105.011 45.8561 103.413 43.2197 102.943 39.8864L112.466 39.3864C112.754 40.7955 113.451 41.8712 114.557 42.6136C115.663 43.3409 117.08 43.7045 118.807 43.7045C120.504 43.7045 121.867 43.3788 122.898 42.7273C123.943 42.0606 124.473 41.2045 124.489 40.1591C124.473 39.2803 124.102 38.5606 123.375 38C122.648 37.4242 121.527 36.9848 120.011 36.6818L113.966 35.4773C110.557 34.7955 108.019 33.6136 106.352 31.9318C104.701 30.25 103.875 28.1061 103.875 25.5C103.875 23.2576 104.481 21.3258 105.693 19.7045C106.92 18.0833 108.64 16.8333 110.852 15.9545C113.08 15.0758 115.686 14.6364 118.67 14.6364C123.08 14.6364 126.549 15.5682 129.08 17.4318C131.625 19.2955 133.11 21.8333 133.534 25.0455ZM140.426 50V15.0909H150.108V50H140.426ZM145.29 10.5909C143.85 10.5909 142.616 10.1136 141.585 9.15909C140.57 8.18939 140.062 7.0303 140.062 5.68182C140.062 4.34848 140.57 3.20454 141.585 2.25C142.616 1.2803 143.85 0.795452 145.29 0.795452C146.729 0.795452 147.956 1.2803 148.972 2.25C150.002 3.20454 150.517 4.34848 150.517 5.68182C150.517 7.0303 150.002 8.18939 148.972 9.15909C147.956 10.1136 146.729 10.5909 145.29 10.5909ZM167.545 3.45454V50H157.864V3.45454H167.545Z" fill="#FFF700"/>
    </svg>
    